<svg viewBox="0 0 448 512" xmlns="http://www.w3.org/2000/svg">
<path d="M224,202.66A53.34,53.34,0,1,0,277.34,256,53.38,53.38,0,0,0,224,202.66Zm124.71-41a54,54,0,0,0-30.53-30.53C295.46,122.67,224,122.67,224,122.67s-71.46,0-94.18,8.46a54,54,0,0,0-30.53,30.53C90.83,145.38,90.83,216.84,90.83,216.84s0,71.46,8.46,94.18a54,54,0,0,0,30.53,30.53c22.72,8.46,94.18,8.46,94.18,8.46s71.46,0,94.18-8.46a54,54,0,0,0,30.53-30.53c8.46-22.72,8.46-94.18,8.46-94.18S357.17,145.38,348.71,161.71ZM224,338a82,82,0,1,1,82-82A82,82,0,0,1,224,338Zm85.33-148.67a19.2,19.2,0,1,1,19.2-19.2A19.2,19.2,0,0,1,309.33,189.33Z"/>
</svg>